<svg width="168" height="32" viewBox="0 0 168 32" fill="none" xmlns="http://www.w3.org/2000/svg">
<path d="M42.6899 23.7098C41.5299 23.7098 40.4299 23.5098 39.3699 23.1198C38.3099 22.7298 37.3399 22.1198 36.4399 21.3098L38.0199 19.4198C38.7499 20.0498 39.4799 20.5298 40.2199 20.8698C40.9599 21.2098 41.7999 21.3698 42.7499 21.3698C43.5599 21.3698 44.2099 21.1998 44.6899 20.8598C45.1699 20.5198 45.4099 20.0598 45.4099 19.4898V19.4498C45.4099 19.1798 45.3599 18.9398 45.2699 18.7298C45.1799 18.5198 45.0099 18.3298 44.7599 18.1398C44.5099 17.9498 44.1599 17.7798 43.7299 17.6298C43.2899 17.4698 42.7199 17.3198 42.0199 17.1598C41.2199 16.9698 40.5099 16.7598 39.8799 16.5298C39.2599 16.2898 38.7399 16.0098 38.3099 15.6698C37.8899 15.3298 37.5599 14.9198 37.3399 14.4398C37.1199 13.9498 37.0099 13.3698 37.0099 12.6798V12.6398C37.0099 11.9998 37.1399 11.4098 37.3899 10.8698C37.6499 10.3398 37.9999 9.87979 38.4399 9.49979C38.8899 9.11979 39.4199 8.82979 40.0499 8.60979C40.6699 8.39979 41.3599 8.28979 42.0999 8.28979C43.1999 8.28979 44.1899 8.4498 45.0699 8.7698C45.9499 9.0898 46.7699 9.5598 47.5399 10.1698L46.1299 12.1598C45.4399 11.6598 44.7699 11.2798 44.0999 11.0098C43.4299 10.7498 42.7499 10.6098 42.0699 10.6098C41.2999 10.6098 40.6999 10.7798 40.2699 11.1198C39.8399 11.4598 39.6299 11.8798 39.6299 12.3798V12.4198C39.6299 12.7098 39.6799 12.9598 39.7799 13.1798C39.8799 13.3998 40.0599 13.5998 40.3299 13.7798C40.5999 13.9598 40.9599 14.1298 41.4299 14.2798C41.8999 14.4398 42.4899 14.5998 43.1999 14.7698C43.9799 14.9698 44.6799 15.1898 45.2899 15.4298C45.8999 15.6698 46.3999 15.9698 46.7999 16.3198C47.1999 16.6698 47.5099 17.0798 47.7099 17.5398C47.9199 17.9998 48.0199 18.5398 48.0199 19.1598V19.1998C48.0199 19.8998 47.8899 20.5298 47.6299 21.0898C47.3699 21.6498 46.9999 22.1198 46.5299 22.4998C46.0699 22.8898 45.4999 23.1798 44.8499 23.3798C44.1899 23.5798 43.4699 23.6798 42.6899 23.6798M59.7899 8.4698H62.2299L70.2399 18.8398V8.4698H72.8499V23.4698H70.6499L62.3999 12.7998V23.4698H59.7899V8.47979V8.4698ZM94.4499 17.5098L91.8599 11.5098L89.2899 17.5098H94.4499ZM90.6799 8.35979H93.1199L99.7099 23.4598H96.9299L95.4099 19.8398H88.3199L86.7799 23.4598H84.0799L90.6799 8.35979ZM116.64 16.2698C117.64 16.2698 118.43 16.0198 119.01 15.5198C119.59 15.0198 119.88 14.3698 119.88 13.5798V13.5398C119.88 12.6498 119.59 11.9798 119 11.5298C118.41 11.0798 117.63 10.8498 116.64 10.8498H113.57V16.2698H116.64ZM110.96 8.4698H116.87C117.74 8.4698 118.53 8.58979 119.24 8.81979C119.95 9.05979 120.55 9.3898 121.04 9.8398C121.53 10.2798 121.91 10.8098 122.18 11.4298C122.44 12.0398 122.58 12.7298 122.58 13.4898V13.5298C122.58 14.3698 122.42 15.1098 122.11 15.7498C121.79 16.3898 121.36 16.9198 120.82 17.3498C120.28 17.7798 119.64 18.0998 118.91 18.3198C118.18 18.5398 117.4 18.6498 116.57 18.6498H113.59V23.4698H110.98V8.47979L110.96 8.4698ZM139.62 16.2698C140.62 16.2698 141.41 16.0198 141.99 15.5198C142.57 15.0198 142.86 14.3698 142.86 13.5798V13.5398C142.86 12.6498 142.57 11.9798 141.98 11.5298C141.39 11.0798 140.61 10.8498 139.62 10.8498H136.55V16.2698H139.62ZM133.94 8.4698H139.85C140.72 8.4698 141.51 8.58979 142.22 8.81979C142.93 9.05979 143.53 9.3898 144.02 9.8398C144.51 10.2798 144.89 10.8098 145.16 11.4298C145.42 12.0398 145.56 12.7298 145.56 13.4898V13.5298C145.56 14.3698 145.4 15.1098 145.09 15.7498C144.77 16.3898 144.34 16.9198 143.8 17.3498C143.25 17.7798 142.62 18.0998 141.89 18.3198C141.16 18.5398 140.38 18.6498 139.55 18.6498H136.57V23.4698H133.96V8.47979L133.94 8.4698ZM160.59 10.9098H155.84V8.4698H168V10.9098H163.25V23.4698H160.6V10.9098H160.59Z" fill="#9BA0A1"/>
<path d="M12.55 29.1498L2.46 23.3198L0 24.7398L12.55 31.9898L25.1 24.7398L22.64 23.3198L12.55 29.1498ZM12.55 23.3198L2.46 17.4898L0 18.9098L12.55 26.1598L25.1 18.9098L22.64 17.4898L12.55 23.3198ZM12.55 17.4898L2.46 11.6598L0 13.0798L12.55 20.3298L25.1 13.0798L22.64 11.6598L12.55 17.4898ZM4.92 7.24976L12.55 2.83976L20.18 7.24976L12.55 11.6598L4.92 7.24976ZM12.55 -0.000244141L0 7.24976L12.55 14.4998L25.1 7.24976L12.55 -0.000244141Z" fill="#9BA0A1"/>
</svg>
