<svg width="140" height="31" viewBox="0 0 140 31" fill="none" xmlns="http://www.w3.org/2000/svg">
<path d="M43.9547 7.9553H42.0658V22.8048H51.4825V20.9578H43.9547V7.9553ZM123.49 13.3189L119.754 17.6169L123.521 21.9502L122.261 23.0432L122.231 23.0081L118.649 18.8876L115.034 23.0432L113.777 21.9502L113.807 21.9131L117.543 17.617L113.777 13.2828L115.034 12.1888L115.067 12.2239L118.649 16.3444L122.261 12.1888L123.521 13.2828L123.49 13.3189ZM98.8373 18.6302L88.7094 7.9553H88.3352V22.8048H90.224V12.1299L100.352 22.8048H100.725V7.9553H98.8373V18.6302ZM125.411 12.4281H127.196V22.8048H125.411V12.4281ZM125.327 9.62572H127.279V7.95435H125.327V9.62572ZM113.217 18.0519C113.175 14.3578 111.058 12.2619 108.152 12.2619C105.247 12.2619 102.943 14.6066 102.943 17.6169C102.943 20.6045 105.206 22.971 108.278 22.971C110.083 22.971 111.557 22.2237 112.449 21.2902L112.44 21.2797L111.169 20.1753C110.502 20.784 109.498 21.2901 108.278 21.2901C106.389 21.2901 104.957 19.8999 104.79 18.0519L113.217 18.0519ZM111.204 16.4954H104.874C105.247 14.9181 106.533 13.902 108.048 13.902C109.626 13.8801 110.954 14.7927 111.204 16.4954ZM133.764 16.8895L132.88 16.578C131.628 16.1422 131.305 15.6445 131.305 15.0016C131.305 14.2752 132.018 13.8602 132.836 13.8602C133.594 13.8602 134.129 14.1688 134.587 14.6693L135.795 13.618C135.04 12.7111 134.029 12.2619 132.836 12.2619C130.873 12.2619 129.471 13.4651 129.471 15.0225C129.471 16.2675 130.14 17.409 132.039 18.0937L132.88 18.4052C134.152 18.8401 134.714 19.276 134.714 20.0651C134.714 20.8543 133.851 21.3728 132.794 21.3728C131.654 21.3728 130.924 20.8457 130.248 20.0651L128.973 21.1734C129.905 22.3053 131.231 22.971 132.751 22.971C135.102 22.971 136.569 21.6634 136.569 20.0024C136.569 18.4669 135.598 17.5334 133.764 16.8895ZM72.7915 13.2828L71.5332 12.1888L67.9198 16.3444L64.3378 12.2239L64.3064 12.1888L63.0463 13.2828L66.8144 17.617L63.0785 21.9131L63.0463 21.9502L64.3065 23.0432L67.9198 18.8876L71.5009 23.0081L71.5332 23.0432L72.7915 21.9502L69.0252 17.6169L72.7611 13.3189L72.7915 13.2828ZM74.6813 12.4281H76.4666V22.8048H74.6813V12.4281ZM74.5986 9.62572H76.5521V7.95435H74.5986V9.62572ZM62.4879 18.0519C62.4461 14.3578 60.3303 12.2619 57.4234 12.2619C54.5175 12.2619 52.2146 14.6066 52.2146 17.6169C52.2146 20.6045 54.4767 22.971 57.5478 22.971C59.3541 22.971 60.8279 22.2237 61.7206 21.2902L61.7111 21.2797L60.4405 20.1753C59.7719 20.784 58.7691 21.2901 57.5479 21.2901C55.66 21.2901 54.2279 19.8999 54.0617 18.0519L62.4879 18.0519ZM60.4746 16.4954H54.1443C54.5175 14.9181 55.8052 13.902 57.3199 13.902C58.8973 13.8801 60.2258 14.7927 60.4746 16.4954ZM83.0353 16.8895L82.1511 16.578C80.8995 16.1422 80.5757 15.6445 80.5757 15.0016C80.5757 14.2752 81.2889 13.8602 82.1084 13.8602C82.8653 13.8602 83.4009 14.1688 83.8576 14.6693L85.0665 13.618C84.3106 12.7111 83.3012 12.2619 82.1084 12.2619C80.1445 12.2619 78.7419 13.4651 78.7419 15.0225C78.7419 16.2675 79.4114 17.409 81.3088 18.0937L82.1511 18.4052C83.4237 18.8401 83.9849 19.276 83.9849 20.0651C83.9849 20.8543 83.1217 21.3728 82.0647 21.3728C80.9252 21.3728 80.1949 20.8457 79.5187 20.0651L78.2443 21.1734C79.1759 22.3053 80.5026 22.971 82.022 22.971C84.3733 22.971 85.8405 21.6634 85.8405 20.0024C85.8405 18.4669 84.869 17.5334 83.0353 16.8895ZM139.422 11.0103C139.422 10.2325 138.819 9.62382 138.047 9.62382C137.285 9.62382 136.666 10.2449 136.666 11.0103C136.666 11.7881 137.273 12.3977 138.047 12.3977C138.819 12.3977 139.422 11.7881 139.422 11.0103ZM139.193 11.0103C139.193 11.6618 138.691 12.1746 138.047 12.1746C137.405 12.1746 136.901 11.6618 136.901 11.0103C136.901 10.3683 137.415 9.84509 138.047 9.84509C138.68 9.84509 139.193 10.3683 139.193 11.0103ZM138.311 11.0787L138.684 11.7662H138.407L138.05 11.1167H137.778V11.7662H137.521V10.2088H138.071C138.424 10.2088 138.627 10.3712 138.627 10.6532C138.627 10.8821 138.521 11.0255 138.311 11.0787ZM138.053 10.4424H137.778V10.8925H138.058C138.281 10.8925 138.374 10.8222 138.374 10.6589C138.374 10.5098 138.275 10.4424 138.053 10.4424ZM34.4677 6.56788C34.4677 5.79012 33.8638 5.1814 33.0927 5.1814C32.3311 5.1814 31.7109 5.80246 31.7109 6.56788C31.7109 7.34563 32.3187 7.9553 33.0927 7.9553C33.8638 7.9553 34.4677 7.34563 34.4677 6.56788ZM34.2389 6.56788C34.2389 7.22028 33.7356 7.73213 33.0927 7.73213C32.4498 7.73213 31.9465 7.22028 31.9465 6.56788C31.9465 5.92591 32.4602 5.40267 33.0927 5.40267C33.7251 5.40267 34.2389 5.92591 34.2389 6.56788ZM33.3567 6.63718L33.7299 7.32377H33.4526L33.0955 6.67421H32.8239V7.32377H32.5666V5.76635H33.1155C33.4697 5.76635 33.6729 5.92874 33.6729 6.21078C33.6729 6.43965 33.5665 6.58305 33.3567 6.63718ZM33.0984 5.99996H32.8239V6.45105H33.1041C33.3263 6.45105 33.4193 6.38075 33.4193 6.21648C33.4193 6.06739 33.3206 5.99996 33.0984 5.99996Z" fill="#9BA0A1"/>
<path d="M6.40175 13.8765C8.04748 10.5955 10.7549 7.95835 13.9457 6.42468C14.3189 6.24709 14.6988 6.08281 15.0824 5.93371C15.1166 5.91947 15.1024 5.86911 15.0653 5.87581C3.70572 7.78744 -1.16879 21.9067 6.41695 27.9493C6.44637 27.973 6.4844 27.937 6.46253 27.9075C5.36095 26.3966 2.76175 21.1888 6.40175 13.8765ZM9.0114 23.2903C8.71321 21.4271 8.71796 19.5335 9.01353 17.7055C9.60801 14.0427 11.3772 10.6857 13.9222 8.19766C14.3952 7.73138 14.8975 7.3012 15.4189 6.90044C15.4474 6.87858 15.421 6.83399 15.3875 6.84824C9.4494 9.50249 6.02309 16.1262 6.46182 22.1603C6.70303 24.918 7.78753 29.9967 13.0751 30.9995C13.1084 31.0052 13.1264 30.9616 13.0988 30.9425C10.9232 29.4478 9.39315 25.9502 9.0114 23.2903ZM1.67181 9.68672C4.32701 5.93658 9.777 3.40579 15.1007 4.06389C15.1386 4.06888 15.1491 4.01453 15.113 4.00499C11.0495 2.81699 6.82264 3.61374 4.23962 5.7001C3.13139 6.59466 2.27101 8.13878 1.61861 9.65631C1.60344 9.69142 1.64995 9.71706 1.67181 9.68672ZM31.6586 14.3675C30.9569 5.78464 23.222 -0.719451 14.6458 0.0640027C11.6658 0.335598 8.47789 1.56729 6.10094 3.57767C6.07153 3.60239 6.10308 3.64797 6.13606 3.62803C8.16923 2.46472 10.9707 2.49321 12.6231 2.68598C13.4939 2.7876 14.3542 2.96993 15.1871 3.22728C16.0199 3.48653 16.8281 3.8227 17.5973 4.22725C17.9961 4.43618 18.3845 4.66598 18.7606 4.91289C20.1632 4.28898 21.6427 3.87398 23.1327 3.66506H23.1377C23.2431 3.64989 23.3514 3.70687 23.3875 3.80751C23.434 3.93951 23.3524 4.07341 23.2241 4.1C22.4226 4.26998 21.6335 4.50075 20.8671 4.78944C20.8339 4.80276 20.8424 4.85304 20.8795 4.85304C21.9658 4.85661 23.0465 4.97365 24.0978 5.19301L24.1028 5.19373C24.1968 5.21459 24.2718 5.28774 24.2832 5.38175C24.3003 5.5375 24.1692 5.65051 24.0306 5.63151C23.1075 5.49192 22.1712 5.43588 21.2367 5.46628C21.2006 5.46699 21.194 5.51948 21.2291 5.52988C21.666 5.66378 22.0952 5.81667 22.5178 5.98666C23.3117 6.31048 24.0752 6.70174 24.8007 7.14712L24.8084 7.15353C24.8777 7.19534 24.9233 7.27318 24.9138 7.35486C24.8929 7.52959 24.7162 7.60461 24.5852 7.53244C23.8625 7.13359 23.1085 6.79172 22.3307 6.51442C22.0031 6.40047 21.6717 6.296 21.3384 6.20484C21.3013 6.19536 21.2805 6.2438 21.3118 6.26374C21.8578 6.60846 22.3792 6.98546 22.8721 7.3995C23.5283 7.94935 24.136 8.55427 24.6868 9.20478L24.6918 9.21047C24.745 9.27408 24.763 9.36241 24.7288 9.43649C24.6538 9.59603 24.461 9.61217 24.3594 9.50109C23.8039 8.89047 23.1961 8.32733 22.5456 7.81927C22.161 7.51919 21.7584 7.24284 21.3434 6.98454C21.3111 6.9646 21.2759 7.00733 21.3026 7.03582C21.4213 7.15927 21.5371 7.28652 21.6511 7.41473C22.219 8.06143 22.728 8.75752 23.1677 9.49349C23.6073 10.2276 23.9787 11.0025 24.2768 11.8011L24.2797 11.8068C24.3073 11.8847 24.2949 11.9749 24.237 12.0338C24.1107 12.1591 23.9226 12.1079 23.8656 11.9654C23.558 11.2 23.181 10.4612 22.7394 9.76414C22.2978 9.06615 21.7916 8.40995 21.2313 7.80313C20.6701 7.19821 20.0538 6.64361 19.3928 6.14886C19.2067 6.0083 18.9247 5.81363 18.8126 5.74146C5.90413 12.9397 10.3836 31.8395 19.6996 30.8576C27.0992 29.1017 32.2966 22.1617 31.6594 14.367M3.62966 12.0091C6.60679 7.29035 11.7947 5.25907 14.9731 4.95423C15.0092 4.95138 15.0092 4.89533 14.9731 4.89348C13.6598 4.77952 12.4442 4.86591 10.8526 5.19737C9.24299 5.56582 7.69318 6.20113 6.30671 7.09854C4.91643 7.98931 3.69044 9.13363 2.69616 10.4508C2.68669 10.4631 2.67715 10.4783 2.66675 10.4907C0.749424 13.0594 0.134056 16.3594 0.895666 19.4733C0.982088 19.8294 1.22425 20.5673 1.38853 21.0364C1.39993 21.0706 1.45213 21.0592 1.44743 21.0222C1.05238 17.3366 2.12353 14.3956 3.62966 12.0091Z" fill="#9BA0A1"/>
</svg>
