<svg width="175" height="32" viewBox="0 0 175 32" fill="none" xmlns="http://www.w3.org/2000/svg">
<mask id="mask0_5682_183" style="mask-type:luminance" maskUnits="userSpaceOnUse" x="0" y="0" width="175" height="32">
<path d="M175 0.634033H0V31.3657H175V0.634033Z" fill="white"/>
</mask>
<g mask="url(#mask0_5682_183)">
<path d="M94.9242 2.71191C95.4935 2.71191 95.9682 2.90519 96.395 3.34008C96.774 3.72664 97.0114 4.25816 97.0114 4.83801C97.0114 5.41785 96.8218 5.90105 96.395 6.28762C96.0151 6.67418 95.5414 6.91578 94.972 6.91578C94.4026 6.91578 93.9279 6.7225 93.5011 6.28762C93.0743 5.85273 92.8848 5.36953 92.8848 4.78968C92.8848 4.20985 93.0743 3.72664 93.5011 3.34008C93.881 2.90519 94.3548 2.71191 94.9242 2.71191Z" fill="#9BA0A1"/>
<path d="M108.113 0.634033C108.729 0.634033 109.298 0.875635 109.773 1.31052C110.248 1.7454 110.437 2.32524 110.437 3.00173C110.437 3.62989 110.2 4.20974 109.773 4.69294C109.298 5.17615 108.777 5.36942 108.16 5.36942C107.495 5.36942 106.974 5.12782 106.5 4.64462C106.025 4.16142 105.836 3.58157 105.836 2.95341C105.836 2.32524 106.072 1.7454 106.5 1.31052C106.927 0.875635 107.495 0.634033 108.113 0.634033Z" fill="#9BA0A1"/>
<path d="M121.3 2.66357C121.869 2.66357 122.343 2.85686 122.77 3.29174C123.15 3.6783 123.387 4.20982 123.387 4.78967C123.387 5.36951 123.197 5.85271 122.77 6.23928C122.391 6.62584 121.916 6.86744 121.347 6.86744C120.778 6.86744 120.304 6.67416 119.877 6.23928C119.449 5.8044 119.26 5.32119 119.26 4.74134C119.26 4.16151 119.449 3.6783 119.877 3.29174C120.256 2.85686 120.731 2.66357 121.3 2.66357Z" fill="#9BA0A1"/>
<path d="M12.0968 16.2416C12.8558 14.4055 14.8007 13.1492 17.5048 13.1492C21.0627 13.1492 24.1935 15.7101 24.1935 20.1073V30.931H20.2087V20.1556C20.2087 18.1262 18.833 16.9665 17.2675 16.9665C15.4649 16.9665 14.0892 18.0295 14.0892 20.6388V30.931H10.1043V20.6388C10.1043 18.0295 8.72866 16.9665 6.926 16.9665C5.36053 16.9665 3.98482 18.1262 3.98482 20.1556V30.931H0V20.1073C0 15.7101 3.08349 13.1492 6.68881 13.1492C9.34534 13.1492 11.3378 14.4055 12.0968 16.2416Z" fill="#9BA0A1"/>
<path d="M29.2692 20.4455H39.5633C38.7569 17.8362 36.7171 16.4832 34.3452 16.4832C31.9258 16.5316 29.9334 17.9329 29.2692 20.4455ZM34.7246 27.9834C36.7645 27.9834 38.5672 27.0171 39.9429 25.2775L43.311 27.0654C41.0814 29.6747 38.0928 31.2692 34.8195 31.3175C28.4628 31.3175 24.8101 26.7755 24.8101 22.185C24.8101 17.5946 28.4628 13.0525 34.8195 13.0525C38.6146 13.0525 44.2124 16.0483 44.2124 22.7648V23.4897H29.2692C29.5538 26.1473 32.1156 27.9834 34.7246 27.9834Z" fill="#9BA0A1"/>
<path d="M52.3241 13.1492C53.178 13.1492 53.937 13.3908 54.5063 13.729L53.0831 17.498C52.6562 17.1597 51.9446 16.9665 51.5651 16.9665C50.1894 16.9665 48.956 17.9811 48.956 19.5274V30.931H44.9712V13.6323H48.7188V15.4686C49.4304 14.1155 50.7587 13.1492 52.3241 13.1492Z" fill="#9BA0A1"/>
<path d="M59.251 13.6323H55.2661V30.931H59.251V13.6323Z" fill="#9BA0A1"/>
<path d="M69.6865 16.7247C66.603 16.7247 63.9939 19.189 63.9939 22.2816C63.9939 25.3257 66.5555 27.8384 69.6865 27.8384C72.7225 27.8384 75.2842 25.374 75.2842 22.2816C75.2842 19.189 72.7225 16.7731 69.6865 16.7247ZM75.1419 8.51025H79.1268V30.9309H75.1419V28.8531C73.9085 30.3993 71.679 31.4141 69.2121 31.4141C63.2349 31.4141 59.8193 26.7753 59.8193 22.2816C59.8193 18.0294 63.5195 13.149 69.4019 13.149C72.0584 13.149 74.0983 14.2604 75.1419 15.71V8.51025Z" fill="#9BA0A1"/>
<path d="M84.9623 13.6323H80.9775V30.931H84.9623V13.6323Z" fill="#9BA0A1"/>
<path d="M95.5403 16.7248C92.4569 16.7248 89.8481 19.1891 89.8481 22.2817C89.8481 25.3258 92.4091 27.8385 95.5403 27.8385C98.5768 27.8385 101.138 25.3741 101.138 22.2817C101.138 19.1891 98.5768 16.7731 95.5403 16.7248ZM100.996 13.584H104.981V30.8826H100.996V28.8049C99.7625 30.3511 97.5327 31.3659 95.0657 31.3659C89.0883 31.3659 85.6729 26.7271 85.6729 22.2334C85.6729 17.9811 89.3735 13.1008 95.256 13.1008C97.9126 13.1008 99.952 14.2121 100.996 15.6618V13.584Z" fill="#9BA0A1"/>
<path d="M116.413 13.1492C120.256 13.1492 123.482 16.1933 123.482 20.4938V30.931H119.497V21.3153C119.497 18.2228 117.789 16.9665 115.275 16.9665C112.808 16.9665 110.911 18.5127 110.911 21.2669V30.931H106.926V13.6323H110.911V15.8068C111.954 14.2122 113.946 13.1492 116.413 13.1492Z" fill="#9BA0A1"/>
<path d="M125.332 30.931L125.285 8.17212H129.317V30.931H125.332Z" fill="#9BA0A1"/>
<path d="M135.293 13.6323H131.309V30.931H135.293V13.6323Z" fill="#9BA0A1"/>
<path d="M146.679 13.1492C150.521 13.1492 153.747 16.1933 153.747 20.4938V30.931H149.762V21.3153C149.762 18.2228 148.055 16.9665 145.54 16.9665C143.074 16.9665 141.176 18.5127 141.176 21.2669V30.931H137.191V13.6323H141.176V15.8068C142.267 14.2122 144.26 13.1492 146.679 13.1492Z" fill="#9BA0A1"/>
<path d="M161.907 23.7311H159.63V30.9309H155.645V8.51025H159.63V20.2037H161.528L166.271 13.6322H171.063L164.943 21.7983L171.395 30.9309H166.651L161.907 23.7311Z" fill="#9BA0A1"/>
<path d="M172.534 15.5651H172.77C173.055 15.5651 173.245 15.4685 173.245 15.2268C173.245 15.0335 173.102 14.8886 172.818 14.8886C172.676 14.8886 172.581 14.8886 172.534 14.9369V15.5651ZM172.486 16.7731H172.011V14.647C172.202 14.5987 172.486 14.5987 172.818 14.5987C173.197 14.5987 173.388 14.647 173.577 14.7436C173.672 14.8403 173.767 14.9852 173.767 15.2268C173.767 15.4685 173.577 15.6617 173.34 15.7101V15.7584C173.529 15.855 173.672 16 173.72 16.2899C173.767 16.6282 173.814 16.7731 173.861 16.8214H173.34C173.293 16.7248 173.245 16.5315 173.15 16.2899C173.102 16.0483 172.961 15.9516 172.723 15.9516H172.486V16.7731ZM171.206 15.6617C171.206 16.6282 171.917 17.4012 172.866 17.4012C173.814 17.4012 174.479 16.6282 174.479 15.7101C174.479 14.7436 173.814 13.9705 172.866 13.9705C171.917 13.9705 171.206 14.7436 171.206 15.6617ZM175 15.6617C175 16.8698 174.052 17.8361 172.818 17.8361C171.585 17.8361 170.636 16.8698 170.636 15.6617C170.636 14.4537 171.585 13.4873 172.818 13.4873C174.052 13.4873 175 14.4537 175 15.6617Z" fill="#9BA0A1"/>
<path d="M84.8669 10.4431C84.8669 11.5061 84.013 12.3759 82.9694 12.3759C81.9257 12.3759 81.0718 11.5061 81.0718 10.4431C81.0718 9.38004 81.9257 8.51025 82.9694 8.51025C84.013 8.51025 84.8669 9.38004 84.8669 10.4431Z" fill="#9BA0A1"/>
<path d="M135.199 10.4431C135.199 11.5061 134.346 12.3759 133.302 12.3759C132.258 12.3759 131.405 11.5061 131.405 10.4431C131.405 9.38004 132.258 8.51025 133.302 8.51025C134.346 8.51025 135.199 9.38004 135.199 10.4431Z" fill="#9BA0A1"/>
<path d="M59.1554 10.4431C59.1554 11.5061 58.3015 12.3759 57.2579 12.3759C56.2143 12.3759 55.3604 11.5061 55.3604 10.4431C55.3604 9.38004 56.2143 8.51025 57.2579 8.51025C58.3015 8.51025 59.1554 9.38004 59.1554 10.4431Z" fill="#9BA0A1"/>
</g>
</svg>
