<svg width="147" height="36" viewBox="0 0 147 36" fill="none" xmlns="http://www.w3.org/2000/svg">
<path d="M18.3454 6.00475L9.02628 0.32251H0L12.8416 13.0232L23.0745 15.8623L18.3454 6.00475Z" fill="#9BA0A1"/>
<path d="M22.4265 16.6366L12.5092 13.937L5.25244 25.6012L22.4265 16.6366Z" fill="#9BA0A1"/>
<path d="M29.6293 1.54857L27.7393 0H23.6706L19.1138 5.51781L23.6872 15.086L30.0156 3.45097L40.6743 0.761795L40.6473 0.416281L29.6293 1.54857Z" fill="#9BA0A1"/>
<path d="M8.77497 9.99485L2.61276 3.98999H0L8.77497 9.99485Z" fill="#9BA0A1"/>
<path d="M35.6982 30.8467H38.6453V11.1733L35.6982 12.0495V30.8467Z" fill="#9BA0A1"/>
<path d="M48.4024 16.7869C45.4843 16.7869 43.7148 19.2388 43.3908 22.2215L42.6846 17.0825H41.0044V30.8468H43.8332V26.684C43.8332 22.6377 45.2766 19.3595 47.7793 19.3595C49.3702 19.3595 50.3734 20.3628 50.3734 22.4608V30.8489H53.2022V22.2589C53.2063 18.9432 51.5863 16.7869 48.4024 16.7869Z" fill="#9BA0A1"/>
<path d="M60.4383 18.8246C62.1767 18.8246 63.6804 19.7404 64.8891 20.9518L66.3035 19.3574C64.6545 17.6132 62.8268 16.7869 60.4383 16.7869C57.4019 16.7869 55.3395 18.3521 55.3395 20.6271C55.3395 22.7543 56.1702 24.2009 60.2327 25.3228C62.914 26.0617 63.4166 26.7797 63.4166 27.5977C63.4166 28.4844 62.7084 29.1047 61.1175 29.1047C59.0239 29.1047 57.433 28.0119 56.2242 26.7111L54.8306 28.3366C56.0082 29.7936 58.3385 31.1424 60.9015 31.1424C64.3512 31.1424 66.1789 29.5189 66.1789 27.067C66.1789 24.8503 64.9099 23.847 61.4332 22.7834C58.81 21.9863 58.1101 21.6616 58.1101 20.421C58.0997 19.3262 59.1029 18.8246 60.4383 18.8246Z" fill="#9BA0A1"/>
<path d="M75.4604 16.7869C72.6025 16.7869 70.9223 19.3574 70.7437 21.0413L70.0957 17.0866H68.4155V35.6965H71.238V27.7871C71.5327 28.7628 72.1333 29.6173 72.9507 30.2239C73.7681 30.8305 74.7589 31.157 75.776 31.1549C79.3068 31.1549 81.23 27.9058 81.23 23.9782C81.23 20.0506 79.2923 16.7869 75.4604 16.7869ZM74.9017 28.8382C72.9556 28.8382 71.2463 26.6819 71.2463 23.9657C71.2463 21.0101 72.9847 19.091 74.9307 19.091C77.1115 19.091 78.4075 21.0413 78.4075 23.9657C78.4075 26.838 77.0222 28.8382 74.9017 28.8382Z" fill="#9BA0A1"/>
<path d="M114.577 27.096V18.9431H118.143V17.0824H114.577V12.7988L111.738 13.1839V17.0824H109.389V18.9431H111.738V27.096C111.738 29.4896 112.741 31.1423 115.423 31.1423C116.426 31.1423 117.603 30.9071 118.193 30.5511L118.222 28.7195C117.524 28.8619 116.814 28.9316 116.102 28.9277C114.783 28.9193 114.577 27.9827 114.577 27.096Z" fill="#9BA0A1"/>
<path d="M123.419 17.0825H120.59V30.8468H123.419V17.0825Z" fill="#9BA0A1"/>
<path d="M144.111 17.0825L140.192 27.45L136.271 17.0825H130.617C130.603 16.4393 130.501 14.8866 130.586 14.2268C130.806 12.4326 133.567 12.9113 134.281 13.8917L135.392 12.1683C134.354 11.1942 133.162 10.8799 131.776 10.8799C129.259 10.8799 127.963 12.2286 127.791 14.2663C127.735 14.9116 127.791 16.4143 127.791 17.0825H125.485V18.9433H127.755V30.8468H130.584V18.9433H134.169L138.867 30.11C137.482 33.2987 137.039 33.8898 135.182 33.8898C134.748 33.8724 134.32 33.7824 133.916 33.6234L133.795 35.5799C134.237 35.8755 135.041 35.9962 135.594 35.9962C138.275 35.9962 139.218 35.02 141.106 30.8551C142.315 28.168 147 17.0908 147 17.0908L144.111 17.0825Z" fill="#9BA0A1"/>
<path d="M122.004 12.3223C121.647 12.3223 121.297 12.4285 121 12.6274C120.703 12.8263 120.471 13.1091 120.334 13.44C120.197 13.7709 120.16 14.1351 120.23 14.4866C120.299 14.8381 120.471 15.1611 120.723 15.4149C120.975 15.6687 121.297 15.8418 121.648 15.9125C121.998 15.9832 122.362 15.9481 122.692 15.8119C123.023 15.6756 123.306 15.4442 123.505 15.1469C123.705 14.8496 123.812 14.4997 123.813 14.1414C123.814 13.9028 123.768 13.6664 123.677 13.4458C123.587 13.2251 123.454 13.0245 123.286 12.8555C123.118 12.6865 122.918 12.5524 122.698 12.4609C122.478 12.3694 122.242 12.3223 122.004 12.3223Z" fill="#9BA0A1"/>
<path d="M94.7386 22.3984C94.7386 18.8246 92.7344 16.7786 89.2556 16.7786C85.4548 16.7786 82.7715 19.5843 82.7715 23.9574C82.7715 28.6239 85.4548 31.134 89.5505 31.134C92.3814 31.134 94.4645 29.8248 94.641 26.9317L92.4437 26.8609C92.3211 28.091 91.5257 29.0672 89.698 29.0672C87.3988 29.0672 85.7788 27.3833 85.7788 24.7545H94.4728C94.6413 23.9803 94.7304 23.1908 94.7386 22.3984ZM91.968 22.7834H85.8079C85.9845 20.598 87.1641 18.7955 89.2847 18.7955C91.0833 18.7955 92.0574 20.0443 92.0574 21.8385C92.0551 22.1555 92.0252 22.4717 91.968 22.7834Z" fill="#9BA0A1"/>
<path d="M103.43 28.957C100.926 28.957 99.362 26.7424 99.362 23.9616C99.362 21.1809 100.608 18.9662 103.1 18.9662C104.749 18.9662 105.871 20.1193 106.106 21.8032L108.666 21.5597L108.612 21.0352C108.286 18.4938 106.282 16.7808 103.158 16.7808C98.826 16.7808 96.4688 19.7634 96.4688 23.9595C96.4688 28.1557 99.0317 31.1362 103.335 31.1362C106.754 31.1362 108.434 29.5419 108.862 26.7653L108.93 26.1991L106.548 26.0243C106.263 27.806 105.35 28.957 103.43 28.957Z" fill="#9BA0A1"/>
</svg>
