<svg width="94" height="36" viewBox="0 0 94 36" fill="none" xmlns="http://www.w3.org/2000/svg">
<path fill-rule="evenodd" clip-rule="evenodd" d="M49.4233 12.1649C48.6347 11.5017 47.2889 11.1704 45.385 11.1704H41.0908V24.4408H44.3017V20.2817H45.7401C47.4858 20.2817 48.766 19.8975 49.5807 19.1283C50.4983 18.2667 50.9601 17.1193 50.9601 15.6869C50.9601 14.2016 50.4476 13.0273 49.4233 12.1649ZM45.6603 17.2789H44.3017V14.1732H45.5223C47.0069 14.1732 47.7492 14.6939 47.7492 15.7354C47.7492 16.7634 47.0524 17.2789 45.6603 17.2789ZM56.4546 11.1697H53.1064V24.4401H60.3355V21.4366H56.4546V11.1697ZM66.8953 11.1697L61.6358 24.4401H65.2406L65.9299 22.5109H70.5001L71.1305 24.4401H74.7757L69.5534 11.1697H66.8953ZM66.8558 19.8244L68.2352 15.2885L69.593 19.8244H66.8558Z" fill="#9BA0A1"/>
<mask id="mask0_5682_216" style="mask-type:luminance" maskUnits="userSpaceOnUse" x="0" y="0" width="94" height="36">
<path d="M0 35.4447H94V0.0283203H0V35.4447Z" fill="#9BA0A1"/>
</mask>
<g mask="url(#mask0_5682_216)">
<path fill-rule="evenodd" clip-rule="evenodd" d="M76.4481 24.44H79.797V11.1696H76.4481V24.44ZM92.7989 13.6568C92.3759 13.0435 91.8327 12.5224 91.2024 12.1252C90.1915 11.4881 88.8121 11.1703 87.0656 11.1703H82.6536V24.44H87.8146C89.6797 24.44 91.1763 23.8305 92.3058 22.61C93.4352 21.3902 93.9993 19.7713 93.9993 17.7548C93.9993 16.1508 93.5994 14.7848 92.7989 13.6568ZM87.4401 21.4357H86.0025V14.1738H87.4603C88.4846 14.1738 89.2716 14.4946 89.8237 15.134C90.3758 15.7733 90.6518 16.6805 90.6518 17.8547C90.6518 20.2421 89.5812 21.4357 87.4401 21.4357ZM13.9038 0.0283203L3.05127 2.8707L0.0604286 13.7844L3.80103 17.625L0 21.4021L2.81478 32.3636L13.6203 35.3828L17.4221 31.6049L21.1627 35.4447L32.0152 32.6023L35.0053 21.6879L31.2654 17.8488L35.0665 14.0716L32.2517 3.10943L21.4447 0.0902409L17.6444 3.8674L13.9038 0.0283203ZM7.24397 4.97003L12.9608 3.472L15.4608 6.03835L11.8149 9.66108L7.24397 4.97003ZM19.7937 6.07267L22.334 3.54884L28.0262 5.13938L23.3806 9.75508L19.7937 6.07267ZM3.48546 12.8884L5.06033 7.14024L9.62978 11.8313L5.98467 15.454L3.48546 12.8877V12.8884ZM25.5285 11.9611L30.174 7.34391L31.6556 13.1182L29.1161 15.6428L25.5285 11.9611ZM13.9635 11.8664L17.6093 8.24362L21.1955 11.926L17.5504 15.5488L13.9635 11.8664ZM8.13398 17.6593L11.7791 14.0366L15.3675 17.719L11.7209 21.3417L8.13398 17.6593ZM19.6997 17.754L23.3448 14.1313L26.9317 17.8137L23.2859 21.4364L19.6997 17.754ZM3.40936 22.3548L5.95035 19.8295L9.53652 23.5127L4.89248 28.1276L3.40936 22.3548ZM13.8695 23.547L17.5153 19.9242L21.1023 23.6067L17.4571 27.2294L13.8695 23.547ZM25.4345 23.6425L29.0803 20.0197L31.5803 22.5853L30.0061 28.3335L25.4345 23.6425ZM7.0403 30.3344L11.6851 25.7172L15.2735 29.3996L12.7325 31.9249L7.0403 30.3344ZM19.6057 29.4347L23.2508 25.8119L27.821 30.5037L22.1049 32.001L19.6057 29.4347Z" fill="#9BA0A1"/>
</g>
</svg>
