<svg width="39" height="39" viewBox="0 0 39 39" fill="none" xmlns="http://www.w3.org/2000/svg">
<circle cx="19.5001" cy="19.5001" r="14.1207" fill="#FFF5D2"/>
<circle opacity="0.1" cx="19.5" cy="19.5" r="19.5" fill="#FFF5D2"/>
<g clip-path="url(#clip0_5631_5)">
<path d="M13.9999 17.0001H16.9999V14.0001L13.4999 10.5001C14.6195 9.96537 15.8774 9.7909 17.1003 10.0007C18.3232 10.2105 19.4509 10.7943 20.3283 11.6717C21.2056 12.549 21.7894 13.6768 21.9992 14.8997C22.209 16.1226 22.0346 17.3805 21.4999 18.5001L27.4999 24.5001C27.8977 24.8979 28.1212 25.4375 28.1212 26.0001C28.1212 26.5627 27.8977 27.1023 27.4999 27.5001C27.102 27.8979 26.5625 28.1214 25.9999 28.1214C25.4372 28.1214 24.8977 27.8979 24.4999 27.5001L18.4999 21.5001C17.3802 22.0348 16.1224 22.2093 14.8995 21.9995C13.6766 21.7897 12.5488 21.2059 11.6714 20.3285C10.7941 19.4512 10.2103 18.3234 10.0005 17.1005C9.79066 15.8776 9.96513 14.6197 10.4999 13.5001L13.9999 17.0001Z" stroke="#B59E4B" stroke-width="2" stroke-linecap="round" stroke-linejoin="round"/>
</g>
<defs>
<clipPath id="clip0_5631_5">
<rect width="24" height="24" fill="white" transform="translate(7 7)"/>
</clipPath>
</defs>
</svg>
