<svg width="122" height="24" viewBox="0 0 122 24" fill="none" xmlns="http://www.w3.org/2000/svg">
<path d="M22.2965 0.296631V16.5511C22.2965 21.6408 19.7352 23.3484 18.159 23.3484C14.9409 23.3484 13.7588 22.0677 10.9348 16.1242L7.65108 9.22836C6.66596 7.12678 3.90763 0.756352 4.07182 7.0611V23.3484H0V7.0611C0 1.97133 2.52847 0.296631 4.10466 0.296631C7.35554 0.296631 8.50485 1.54445 11.3289 7.48799L14.7439 14.6465C15.9261 17.2735 18.3889 22.4289 18.2247 16.5511V0.296631H22.2965Z" fill="#153840"/>
<path d="M45.4237 23.3484H37.0502C30.7126 23.2827 25.59 18.1601 25.59 11.8225C25.59 5.45208 30.7454 0.296631 37.1158 0.296631H45.4237V4.36845H37.1158C33.0112 4.36845 29.6618 7.68501 29.6618 11.8225C29.6618 15.9272 33.0112 19.2766 37.1158 19.2766H45.4237V23.3484ZM42.2713 13.8584H34.6202V9.7866H42.2713V13.8584Z" fill="#153840"/>
<path d="M55.1797 11.8553C53.6035 10.115 52.6512 7.78352 51.9616 6.53571L48.7107 0.329468H53.3079L55.5737 4.63115C56.7887 6.76557 58.0365 9.81943 59.3828 9.81943C62.6337 9.81943 62.0427 10.2135 65.0965 4.63115L67.3623 0.329468H71.9595L68.7086 6.53571C68.019 7.78352 67.0667 10.115 65.4906 11.8553C67.0667 13.5629 68.019 15.8943 68.7086 17.1421L71.9595 23.3484H67.3623L65.0965 19.0467C63.8815 16.9123 62.6337 13.8913 61.2874 13.8913C58.0365 13.8913 58.6276 13.4972 55.5737 19.0467L53.3079 23.3484H48.7107L51.9616 17.1421C52.6512 15.8943 53.6035 13.5629 55.1797 11.8553Z" fill="#153840"/>
<path d="M84.8191 23.3484V13.7599C81.2399 13.0046 79.5323 8.44027 78.4815 6.53571L75.2307 0.329468H79.8279L82.0936 4.63115C83.3086 6.76557 84.5564 9.81943 85.9028 9.81943C89.0223 9.81943 88.5626 10.2792 91.6164 4.63115L93.8822 0.329468H98.4794L95.2285 6.53571C94.1449 8.44027 92.4702 13.0046 88.8909 13.7599V23.3484H84.8191Z" fill="#153840"/>
<path d="M106.88 0.296631H118.997V4.36845H106.88C103.333 4.36845 103.333 9.7866 106.88 9.7866H114.432C118.176 9.7866 121.229 12.8076 121.229 16.5511C121.229 20.2945 118.176 23.3484 114.432 23.3484H101.691V19.2766H114.432C118.011 19.2766 118.011 13.8584 114.432 13.8584H106.715C103.038 13.7599 100.115 10.7717 100.115 7.0611C100.115 3.31766 103.136 0.296631 106.88 0.296631Z" fill="#153840"/>
</svg>